<?xml version="1.0" standalone="no"?>
<!DOCTYPE svg PUBLIC "-//W3C//DTD SVG 20010904//EN"
 "http://www.w3.org/TR/2001/REC-SVG-20010904/DTD/svg10.dtd">
<svg version="1.0" xmlns="http://www.w3.org/2000/svg"
 width="1076.000000pt" height="1076.000000pt" viewBox="0 0 1076.000000 1076.000000"
 preserveAspectRatio="xMidYMid meet">
<metadata>
Created by potrace 1.11, written by Peter Selinger 2001-2013
</metadata>
<g transform="translate(0.000000,1076.000000) scale(0.100000,-0.100000)"
fill="#000000" stroke="none">
<path d="M5098 10735 c-1 -1 -48 -6 -103 -9 -55 -4 -113 -8 -130 -10 -16 -2
-61 -6 -98 -10 -37 -4 -77 -9 -87 -11 -10 -2 -44 -6 -75 -10 -133 -14 -434
-77 -650 -136 -638 -174 -1261 -477 -1780 -868 -93 -70 -244 -188 -255 -201
-3 -3 -36 -32 -75 -65 -38 -33 -83 -73 -101 -90 -183 -176 -307 -302 -404
-415 -36 -41 -67 -77 -70 -80 -18 -17 -147 -180 -206 -260 -146 -198 -252
-363 -387 -601 -94 -165 -226 -448 -312 -669 -99 -251 -218 -668 -259 -905 -3
-16 -10 -57 -16 -90 -6 -33 -13 -76 -15 -95 -7 -44 -13 -86 -19 -125 -45 -286
-56 -910 -22 -1230 2 -16 7 -57 10 -90 9 -88 45 -319 63 -405 8 -41 17 -88 20
-105 8 -51 79 -325 108 -420 199 -652 511 -1252 924 -1775 233 -294 608 -674
851 -860 25 -19 47 -38 50 -41 12 -15 247 -184 355 -256 287 -191 651 -382
965 -506 153 -61 351 -132 396 -142 10 -2 57 -16 104 -30 230 -70 573 -140
825 -170 22 -3 60 -7 85 -10 25 -3 61 -7 81 -9 219 -26 727 -26 999 -1 39 3
125 14 180 21 19 2 55 7 80 10 356 41 971 209 1297 355 24 10 45 19 48 19 7 0
118 50 135 60 8 6 22 13 30 16 15 6 275 136 329 165 60 32 208 121 295 177
114 73 125 81 179 119 95 66 112 78 117 83 3 3 47 37 98 75 50 38 92 73 92 77
0 4 6 8 14 8 8 0 16 4 18 8 2 5 55 54 118 108 132 114 542 524 523 524 -2 0 6
11 19 23 13 13 41 46 63 72 22 27 45 53 50 59 6 6 23 29 40 51 16 22 33 45 38
50 20 25 129 179 188 265 274 405 503 874 655 1345 37 113 110 376 120 430 2
17 10 48 15 70 13 49 13 47 44 220 13 77 27 163 30 190 3 28 8 59 10 70 2 11
7 56 10 100 4 44 8 91 11 105 23 139 23 780 0 935 -3 17 -7 59 -10 95 -9 101
-16 160 -41 305 -9 55 -18 109 -20 120 -2 11 -8 45 -15 75 -6 30 -14 69 -17
85 -4 25 -32 138 -83 330 -4 17 -21 73 -38 125 -231 732 -601 1383 -1114 1962
-124 140 -360 372 -508 500 -30 26 -66 56 -80 68 -14 12 -41 34 -60 49 -19 14
-37 29 -40 32 -13 15 -248 185 -355 256 -286 190 -639 377 -940 498 -243 99
-690 238 -861 269 -15 3 -50 10 -78 16 -78 16 -151 29 -242 45 -69 11 -269 36
-332 40 -37 3 -85 8 -107 11 -42 5 -671 14 -677 9z"/>
</g>
</svg>
