<svg xmlns="http://www.w3.org/2000/svg" viewBox="0 0 52 52" fill="#f2982c">
  <path d="M26.005 14a1 1 0 0 1-.996-.929c-.017-.231-.38-5.74 2.11-10.532a1 1 0 0 1 1.775.922C26.662 7.756 27 12.877 27.003 12.93A.999.999 0 0 1 26.005 14z"/>
  <path d="M25.792 14c-2.764 0-4.916-.731-6.4-2.176-1.554-1.514-2.362-3.802-2.398-6.8l-.011-1 .999-.012.205-.001c5.668 0 8.709 3.098 8.796 8.973l.014 1.002-1.002.013-.203.001zm-6.748-7.962c.17 1.928.754 3.389 1.744 4.353.95.925 2.34 1.456 4.143 1.58-.335-3.774-2.23-5.685-5.887-5.933z"/>
  <g>
    <path d="M26 50c-8.271 0-15-5.832-15-13 0-2.624.897-5.151 2.592-7.309 2.097-2.67 3.169-5.843 3.016-8.935a7.955 7.955 0 0 1-.008-.371C16.6 15.762 20.816 12 26 12s9.4 3.762 9.4 8.385c0 .127-.004.253-.01.377-.15 3.086.92 6.26 3.018 8.93C40.104 31.85 41 34.375 41 37c0 7.168-6.729 13-15 13zm0-36c-4.081 0-7.4 2.864-7.4 6.385 0 .093.003.185.007.276.175 3.57-1.047 7.217-3.443 10.267C13.748 32.73 13 34.829 13 37c0 6.066 5.832 11 13 11s13-4.934 13-11c0-2.17-.748-4.27-2.164-6.072-2.396-3.05-3.618-6.696-3.443-10.27.005-.094.007-.183.007-.273C33.4 16.865 30.081 14 26 14z"/>
  </g>
  <g>
    <path d="M26 43c-3.368 0-6.006-3.953-6.006-9s2.638-9 6.006-9c3.368 0 6.006 3.953 6.006 9S29.368 43 26 43zm0-16c-2.172 0-4.006 3.206-4.006 7s1.834 7 4.006 7 4.006-3.206 4.006-7-1.834-7-4.006-7z"/>
  </g>
</svg>
